# xmcd
#
# Track frame offsets: 
#        150
#        25338
#        48240
#        78892
#        97914
#        124620
#        152237
#        171613
#        195012
#        220839
#
# Disc length: 3206 seconds
#
# Revision: 0
# Processed by: cddbd v1.5.2PL0 Copyright (c) Steve Scherf et al.
# Submitted via: ExactAudioCopy v1.0b3
#
DISCID=760c840a
DTITLE=Truong Vu, Hong Truc - Tuy Ca
DYEAR=1998
DGENRE=
TTITLE0=Truong Vu - Gio ve mien xuoi
TTITLE1=Hong Truc - Cau tre ky niem
TTITLE2=Truong Vu - Tuy ca
TTITLE3=Hong Truc - Anh ve keo troi mua
TTITLE4=Mua qua pho vang
TTITLE5=Hong Truc - Sao chua thay hoi am
TTITLE6=Truong Vu - Xuan tha huong Xuan lac xu
TTITLE7=Hong Truc - Dem tam su
TTITLE8=Truong Vu - Chuyen binh thuong
TTITLE9=Hong Truc - Suong lanh chieu dong
EXTD=
EXTT0=
EXTT1=
EXTT2=
EXTT3=
EXTT4=
EXTT5=
EXTT6=
EXTT7=
EXTT8=
EXTT9=
PLAYORDER=
